PathFileType  4	(X/Y/Z) C:\Users\antoi\Documents\MyRepositories\mobilecap\ResultsAnalysis
DataRate	CameraRate	NumFrames	NumMarkers	Units	OrigDataRate	OrigDataStartFrame	OrigNumFrames
100.0	100.0	4	51	mm	100.0	202	269
Frame#	Time	r_knee			r_shank_antsup			r_ankle			r_calc			r_5meta			r_toe			L_knee			L_shank_antsup			L_ankle			L_calc			L_5meta			L_toe			r_sh2			r_sh3			r_sh4			L_sh2			L_sh3			r_thigh1			r_thigh2			r_thigh3			r_thigh4			r_thigh5			L_thigh1			L_thigh2			L_thigh3			L_thigh4			r.ASIS			r.PSIS			L.ASIS			L.PSIS			C7			R_Shoulder			L_Shoulder			R_Sternum			L_Sternum			R_humerus			R_elbow_med			R_elbow_lat			R_forearm			R_wrist_radius			R_wrist_ulna			L_humerus			L_elbow_med			L_elbow_lat			L_forearm			L_wrist_radius			L_wrist_ulna			R_HJC			L_HJC			R_HJC_reg			L_HJC_reg			
		X1	Y1	Z1	X2	Y2	Z2	X3	Y3	Z3	X4	Y4	Z4	X5	Y5	Z5	X6	Y6	Z6	X7	Y7	Z7	X8	Y8	Z8	X9	Y9	Z9	X10	Y10	Z10	X11	Y11	Z11	X12	Y12	Z12	X13	Y13	Z13	X14	Y14	Z14	X15	Y15	Z15	X16	Y16	Z16	X17	Y17	Z17	X18	Y18	Z18	X19	Y19	Z19	X20	Y20	Z20	X21	Y21	Z21	X22	Y22	Z22	X23	Y23	Z23	X24	Y24	Z24	X25	Y25	Z25	X26	Y26	Z26	X27	Y27	Z27	X28	Y28	Z28	X29	Y29	Z29	X30	Y30	Z30	X31	Y31	Z31	X32	Y32	Z32	X33	Y33	Z33	X34	Y34	Z34	X35	Y35	Z35	X36	Y36	Z36	X37	Y37	Z37	X38	Y38	Z38	X39	Y39	Z39	X40	Y40	Z40	X41	Y41	Z41	X42	Y42	Z42	X43	Y43	Z43	X44	Y44	Z44	X45	Y45	Z45	X46	Y46	Z46	X47	Y47	Z47	X48	Y48	Z48	X49	Y49	Z49	X50	Y50	Z50	X51	Y51	Z51	

202	2.01000000	-26.90968	437.02055	-458.74868	-20.58169	339.09814	-450.36992	-267.72841	121.45607	-414.04432	-340.48926	94.96937	-464.38186	-180.56244	49.15452	-351.49961	-133.35616	68.95058	-399.75021	7.17821	455.61318	-751.24011	21.80246	358.05715	-739.16784	-221.51732	127.73836	-771.01181	-310.29177	104.89626	-721.43530	-146.59419	44.93129	-810.95004	-90.71273	60.45359	-759.19057	-89.90051	248.22812	-437.48716	-73.33650	382.85321	-416.86509	-144.67621	297.96915	-396.82272	-33.38311	415.10990	-783.36840	-104.89283	317.84459	-799.56764	-169.25982	668.29694	-435.01621	-91.53095	594.07611	-454.44261	-106.80439	535.82370	-420.71347	-244.48636	584.35653	-419.72069	-155.65896	509.63948	-437.45270	-110.27367	677.81002	-757.43278	-5.95577	589.67877	-728.09549	-165.87239	601.31424	-811.41125	-69.15202	515.14518	-776.22188	-188.87721	755.09355	-477.87751	-364.01562	852.94247	-568.23353	-164.77914	764.42677	-723.22917	-351.90094	857.29443	-664.02927	-133.43437	1249.34599	-605.15029	-70.92356	1243.10367	-468.30050	-55.27051	1240.58488	-705.23499	-27.86165	1158.86548	-565.03857	-18.99881	1160.34772	-610.71943	6.36219	1262.77110	-421.25071	202.45708	1200.68334	-368.21949	179.88560	1243.98688	-316.92515	171.46471	1319.89268	-369.77712	174.19195	1405.24368	-513.75224	212.40181	1424.93454	-486.55699	24.34434	1268.74289	-748.32513	221.40455	1238.77487	-792.55822	185.50452	1303.80533	-835.53460	165.23720	1347.19791	-776.98553	145.81833	1413.55012	-624.27614	183.33792	1446.02973	-643.98263	-291.81145	699.23916	-512.58606	-271.24705	707.07418	-700.86698	-278.30386	707.17359	-526.26475	-257.89430	714.50567	-687.64247	
203	2.02000000	-29.13253	441.43458	-457.85575	-22.10413	343.08753	-450.25862	-266.73777	122.47470	-414.24902	-339.38142	97.00175	-464.99171	-180.21252	49.50087	-351.81368	-132.64443	68.94075	-399.86212	5.58337	460.04086	-753.03790	20.63581	362.65951	-741.43551	-220.26709	129.51413	-771.62075	-308.86821	108.04493	-721.94224	-146.09821	45.09373	-810.99455	-90.08084	60.29375	-759.34384	-89.91203	251.53871	-436.92815	-75.10833	385.95577	-415.68131	-145.56859	299.21823	-396.76268	-35.44397	419.06826	-785.48827	-106.10747	321.03405	-801.07567	-163.89646	678.78675	-434.41309	-88.58654	601.75624	-453.39971	-106.21159	544.13544	-419.66702	-242.03978	597.13353	-419.67176	-155.67586	519.44170	-436.85112	-105.10553	686.44059	-758.36356	-3.27793	594.91213	-729.97254	-163.58525	611.56150	-811.76092	-69.18816	522.51449	-777.76194	-183.11442	770.62649	-478.87430	-358.51171	867.56376	-568.03882	-159.37123	778.14486	-723.19377	-346.66036	871.56192	-664.30747	-137.16136	1268.09967	-606.52478	-75.42231	1266.17309	-472.55536	-62.32518	1263.84757	-704.90203	-28.79995	1180.79262	-567.14714	-20.79430	1182.15662	-612.68641	-1.40468	1291.78506	-426.50151	196.97299	1244.15011	-365.29105	170.61343	1288.67909	-317.61908	163.59549	1363.13402	-372.71338	174.72642	1446.30712	-516.69453	211.49517	1466.86630	-488.31709	12.53276	1297.41209	-747.61481	210.99027	1281.36345	-797.81429	170.49481	1345.31216	-836.30020	152.53729	1388.13718	-776.16220	142.70281	1452.42995	-621.46613	177.57745	1486.65302	-642.95761	-285.94447	714.31789	-512.13966	-266.01276	721.07128	-700.52995	-272.20058	722.23844	-526.54414	-252.41127	728.91520	-687.27909	
204	2.03000000	-31.90436	446.58100	-456.64581	-24.23944	347.62936	-449.95748	-265.62812	123.66916	-414.30238	-338.24832	99.24279	-465.37518	-179.86006	49.92721	-351.88937	-131.98394	68.88894	-399.86096	3.64557	465.07688	-754.92302	19.07177	367.98830	-743.89024	-218.75719	131.48996	-772.23066	-307.27225	111.56334	-722.43686	-145.60501	45.35547	-810.95175	-89.43690	59.96155	-759.40820	-90.49303	254.84886	-437.05756	-77.36179	389.30023	-414.47476	-147.02585	301.20013	-396.46964	-37.95206	423.61976	-787.54099	-107.57229	324.51507	-802.33579	-158.65635	689.86840	-433.87507	-86.01893	610.02712	-452.41279	-105.88057	552.97068	-418.99632	-239.79342	611.01181	-419.32949	-156.15554	530.25253	-435.68723	-100.13461	695.54424	-759.40931	-1.10685	600.70490	-732.01873	-161.55439	622.37331	-812.00184	-69.66893	530.40623	-779.06901	-177.31149	786.95714	-479.84479	-352.93835	882.95415	-568.18133	-153.94927	792.39647	-723.54827	-341.38198	886.35269	-664.54816	-141.11904	1287.38097	-607.56159	-80.04729	1289.63012	-476.68248	-70.11879	1288.09334	-705.72478	-29.22655	1203.98805	-569.57207	-22.08161	1205.62626	-614.97457	-9.38235	1320.66776	-432.07802	190.45736	1287.01176	-363.54787	160.27881	1332.54580	-319.78640	155.35347	1405.77801	-376.95455	176.72729	1487.88345	-519.37807	210.80760	1509.59451	-488.74514	1.33272	1326.11582	-745.98641	199.20840	1322.63814	-801.27412	154.68883	1385.10553	-835.17642	139.70154	1428.29838	-774.71562	141.46960	1492.38434	-618.36831	172.22776	1528.19381	-643.26632	-279.99416	730.17220	-511.72522	-260.78642	735.61926	-700.23359	-266.18369	738.09215	-526.77703	-246.95257	743.74523	-687.14958	
205	2.04000000	-35.18803	452.79142	-454.86553	-26.99335	352.95433	-449.32486	-264.34696	125.28874	-414.05363	-336.96582	101.83255	-465.42693	-179.46937	50.28945	-351.89322	-131.34628	68.82489	-399.63483	1.40270	470.99047	-756.99401	17.08152	373.97775	-746.21041	-216.87020	133.62700	-772.63108	-305.33843	115.47055	-722.81031	-145.08789	45.75779	-810.98330	-88.73820	59.62558	-759.50900	-91.39910	258.77174	-437.13057	-80.39907	393.05828	-413.03513	-149.00666	304.42198	-395.69674	-40.95526	428.66343	-789.50773	-109.21496	328.34627	-803.34405	-153.54427	701.57084	-433.20224	-83.79785	618.90566	-451.39063	-105.94886	562.63248	-418.21583	-237.69322	625.87779	-418.81932	-157.04634	542.01362	-434.42198	-95.33552	705.10951	-760.41465	0.62595	607.07774	-734.05746	-159.78021	633.83673	-812.27664	-70.51731	538.95989	-780.24465	-171.28511	804.32713	-480.48249	-347.41854	898.94444	-568.68991	-148.60569	807.56425	-724.32265	-336.01785	901.60380	-665.08716	-145.27966	1307.22440	-608.10164	-84.73402	1313.63045	-480.60137	-78.34604	1312.94010	-706.78831	-29.24955	1228.35084	-572.16394	-23.22139	1230.18616	-617.47238	-17.18376	1349.51124	-437.96924	183.14074	1329.10956	-363.26036	149.17501	1375.29289	-323.11303	146.90814	1447.66365	-381.84067	179.85572	1530.09192	-521.58766	210.16531	1552.89759	-487.53730	-9.26416	1354.25917	-743.31919	186.45167	1362.57428	-803.11075	138.62184	1423.53841	-833.35190	127.08996	1467.47362	-772.53744	141.91900	1533.88397	-615.77915	167.48037	1570.70647	-645.42344	-273.76745	746.87825	-511.35155	-255.31326	750.78843	-699.97403	-260.18847	754.59096	-526.90595	-241.21073	759.01706	-687.37004	
